<?xml version="1.0" encoding="UTF-8" standalone="no"?>
<!-- Created with Inkscape (http://www.inkscape.org/) -->

<svg
   width="128"
   height="120"
   viewBox="0 0 33.866667 31.75"
   version="1.1"
   id="svg1205"
   inkscape:version="1.2.1 (9c6d41e410, 2022-07-14)"
   sodipodi:docname="logo2.svg"
   inkscape:export-filename="Desktop\logo.png"
   inkscape:export-xdpi="96"
   inkscape:export-ydpi="96"
   xml:space="preserve"
   xmlns:inkscape="http://www.inkscape.org/namespaces/inkscape"
   xmlns:sodipodi="http://sodipodi.sourceforge.net/DTD/sodipodi-0.dtd"
   xmlns="http://www.w3.org/2000/svg"
   xmlns:svg="http://www.w3.org/2000/svg"><sodipodi:namedview
     id="namedview1207"
     pagecolor="#ffffff"
     bordercolor="#000000"
     borderopacity="0.25"
     inkscape:showpageshadow="2"
     inkscape:pageopacity="0.0"
     inkscape:pagecheckerboard="true"
     inkscape:deskcolor="#d1d1d1"
     inkscape:document-units="mm"
     showgrid="false"
     inkscape:zoom="2.8284271"
     inkscape:cx="38.183766"
     inkscape:cy="109.60155"
     inkscape:window-width="1920"
     inkscape:window-height="1017"
     inkscape:window-x="-8"
     inkscape:window-y="-8"
     inkscape:window-maximized="1"
     inkscape:current-layer="g1708" /><defs
     id="defs1202" /><g
     inkscape:label="Слой 1"
     inkscape:groupmode="layer"
     id="layer1"><g
       id="g1708"
       transform="matrix(0.46460542,0,0,0.46897724,-0.06977528,-0.98975759)"><path
         style="fill:#000000;stroke-width:0.414223"
         id="path807"
         sodipodi:type="arc"
         sodipodi:cx="-9.9914799"
         sodipodi:cy="-57.744637"
         sodipodi:rx="40.8895"
         sodipodi:ry="36.936443"
         sodipodi:start="0"
         sodipodi:end="4.5205131"
         sodipodi:open="true"
         sodipodi:arc-type="arc"
         d="M 30.89802,-57.744637 A 40.8895,36.936443 0 0 1 -7.3780263,-20.883716 40.8895,36.936443 0 0 1 -50.546902,-53.032703 40.8895,36.936443 0 0 1 -17.789135,-94.003231"
         transform="matrix(-0.76675924,0.64193479,-0.50326125,-0.86413431,0,0)" /><path
         sodipodi:type="star"
         style="fill:#ffffff;fill-opacity:1"
         id="path336"
         inkscape:flatsided="false"
         sodipodi:sides="5"
         sodipodi:cx="145.34866"
         sodipodi:cy="117.95252"
         sodipodi:r1="0.79248488"
         sodipodi:r2="0.39624244"
         sodipodi:arg1="0.66596924"
         sodipodi:arg2="1.2942878"
         inkscape:rounded="0"
         inkscape:randomized="0"
         d="m 145.97181,118.44214 -0.51497,-0.10843 -0.38126,0.36276 -0.056,-0.52327 -0.46282,-0.25051 0.48035,-0.21497 0.0952,-0.51758 0.35289,0.39041 0.52167,-0.0694 -0.26226,0.45627 z"
         inkscape:transform-center-x="-0.46441895"
         inkscape:transform-center-y="-0.28564352"
         transform="matrix(-2.224548,1.4725384,-1.5129304,-2.206096,547.59313,58.401244)" /><path
         sodipodi:type="star"
         style="fill:#ffffff;fill-opacity:1"
         id="path338"
         inkscape:flatsided="false"
         sodipodi:sides="5"
         sodipodi:cx="150.42285"
         sodipodi:cy="119.26558"
         sodipodi:r1="0.60744858"
         sodipodi:r2="0.30372429"
         sodipodi:arg1="2.6451699"
         sodipodi:arg2="3.2734884"
         inkscape:rounded="0"
         inkscape:randomized="0"
         d="m 149.88873,119.5549 0.23304,-0.32926 -0.13913,-0.37864 0.38516,0.11989 0.31711,-0.24932 0.005,0.40335 0.33511,0.22455 -0.38206,0.1294 -0.11,0.3881 -0.24114,-0.32338 z"
         inkscape:transform-center-x="0.33800084"
         inkscape:transform-center-y="0.027230858"
         transform="matrix(-2.224548,1.4725384,-1.5129304,-2.206096,530.7392,72.188299)" /><path
         sodipodi:type="star"
         style="fill:#ffffff;fill-opacity:1"
         id="path340"
         inkscape:flatsided="false"
         sodipodi:sides="5"
         sodipodi:cx="152.7374"
         sodipodi:cy="117.32938"
         sodipodi:r1="0.47628194"
         sodipodi:r2="0.23814096"
         sodipodi:arg1="0.65284663"
         sodipodi:arg2="1.2811652"
         inkscape:rounded="0"
         inkscape:randomized="0"
         d="m 153.11573,117.61869 -0.31032,-0.0611 -0.22626,0.221 -0.0378,-0.31402 -0.2801,-0.14688 0.28697,-0.13298 0.0531,-0.31179 0.21515,0.23183 0.31295,-0.0458 -0.154,0.27626 z"
         inkscape:transform-center-x="-0.28089587"
         inkscape:transform-center-y="-0.19251183"
         transform="matrix(-2.224548,1.4725384,-1.5129304,-2.206096,570.77182,55.970756)" /><path
         sodipodi:type="star"
         style="fill:#ffffff;fill-opacity:1"
         id="path342"
         inkscape:flatsided="false"
         sodipodi:sides="5"
         sodipodi:cx="148.21959"
         sodipodi:cy="115.52671"
         sodipodi:r1="0.22913124"
         sodipodi:r2="0.11456561"
         sodipodi:arg1="2.6344941"
         sodipodi:arg2="3.2628127"
         inkscape:rounded="0"
         inkscape:randomized="0"
         d="m 148.01929,115.63799 0.0866,-0.12513 -0.054,-0.14226 0.14576,0.0437 0.11861,-0.0953 0.004,0.15212 0.1273,0.0833 -0.14359,0.0503 -0.0399,0.14683 -0.0923,-0.121 z"
         inkscape:transform-center-x="0.25454662"
         inkscape:transform-center-y="0.035609394"
         transform="matrix(-4.4140616,2.8376553,-3.0020336,-4.2512576,1026.0264,110.97485)" /><path
         sodipodi:type="star"
         style="fill:#ffffff;fill-opacity:1"
         id="path344"
         inkscape:flatsided="false"
         sodipodi:sides="5"
         sodipodi:cx="147.93027"
         sodipodi:cy="119.19881"
         sodipodi:r1="0.28150839"
         sodipodi:r2="0.14075419"
         sodipodi:arg1="1.8925469"
         sodipodi:arg2="2.5208654"
         inkscape:rounded="0"
         inkscape:randomized="0"
         d="m 147.84125,119.46587 -0.0255,-0.1852 -0.167,-0.084 0.16826,-0.0815 0.0283,-0.18479 0.12947,0.13486 0.18448,-0.0302 -0.0882,0.16481 0.0857,0.16612 -0.184,-0.033 z"
         inkscape:transform-center-x="-0.25328166"
         inkscape:transform-center-y="-0.19410344"
         transform="matrix(-3.3669005,2.2045322,-2.2898522,-3.3027388,798.54438,97.001045)" /><path
         style="fill:#ffffff;stroke-width:0.238932"
         id="path346"
         sodipodi:type="arc"
         sodipodi:cx="29.434223"
         sodipodi:cy="16.792349"
         sodipodi:rx="7.5536618"
         sodipodi:ry="7.3344259"
         sodipodi:start="0"
         sodipodi:end="5.899712"
         sodipodi:open="true"
         sodipodi:arc-type="arc"
         d="m 36.987885,16.792349 a 7.5536618,7.3344259 0 0 1 -6.830614,7.300747 7.5536618,7.3344259 0 0 1 -8.138287,-5.90307 7.5536618,7.3344259 0 0 1 5.272595,-8.4308488 7.5536618,7.3344259 0 0 1 9.147689,4.2890418" /><rect
         style="fill:#212529;fill-opacity:1;stroke-width:0.371523"
         id="rect447-4"
         width="22.185163"
         height="42.68486"
         x="37.560081"
         y="27.06147" /><rect
         style="fill:#ffffff;stroke-width:0.351827"
         id="rect501-1"
         width="4.0256743"
         height="5.6141467"
         x="39.623898"
         y="28.472063" /><rect
         style="fill:#ffffff;stroke-width:0.351827"
         id="rect501-7-1"
         width="4.0256743"
         height="5.6141467"
         x="53.74102"
         y="28.534473" /><rect
         style="fill:#ffffff;stroke-width:0.351827"
         id="rect501-7-3-6"
         width="4.0256743"
         height="5.6141467"
         x="46.67514"
         y="28.534473" /><rect
         style="fill:#ffffff;stroke-width:0.351827"
         id="rect501-2-1"
         width="4.0256743"
         height="5.6141467"
         x="39.673172"
         y="35.739243" /><rect
         style="fill:#ffffff;stroke-width:0.351827"
         id="rect501-7-2-7"
         width="4.0256743"
         height="5.6141467"
         x="53.790298"
         y="35.801651" /><rect
         style="fill:#ffffff;stroke-width:0.351827"
         id="rect501-7-3-8-5"
         width="4.0256743"
         height="5.6141467"
         x="46.724415"
         y="35.801651" /><rect
         style="fill:#ffffff;stroke-width:0.351827"
         id="rect501-2-7-2"
         width="4.0256743"
         height="5.6141467"
         x="39.736088"
         y="42.663391" /><rect
         style="fill:#ffffff;stroke-width:0.351827"
         id="rect501-7-2-1-1"
         width="4.0256743"
         height="5.6141467"
         x="53.853191"
         y="42.725765" /><rect
         style="fill:#ffffff;stroke-width:0.351827"
         id="rect501-7-3-8-2-4"
         width="4.0256743"
         height="5.6141467"
         x="46.787312"
         y="42.725765" /><rect
         style="fill:#ffffff;stroke-width:0.351827"
         id="rect501-2-7-8-4"
         width="4.0256743"
         height="5.6141467"
         x="39.736088"
         y="49.46273" /><rect
         style="fill:#ffffff;stroke-width:0.351827"
         id="rect501-7-2-1-2-5"
         width="4.0256743"
         height="5.6141467"
         x="53.853191"
         y="49.525124" /><rect
         style="fill:#ffffff;stroke-width:0.351827"
         id="rect501-7-3-8-2-1-5"
         width="4.0256743"
         height="5.6141467"
         x="46.787312"
         y="49.525124" /><rect
         style="fill:#ffffff;stroke-width:0.351827"
         id="rect501-2-7-8-7-5"
         width="4.0256743"
         height="5.6141467"
         x="39.861897"
         y="56.074966" /><rect
         style="fill:#ffffff;stroke-width:0.351827"
         id="rect501-7-2-1-2-3-9"
         width="4.0256743"
         height="5.6141467"
         x="53.979004"
         y="56.137337" /><rect
         style="fill:#ffffff;stroke-width:0.351827"
         id="rect501-7-3-8-2-1-4-9"
         width="4.0256743"
         height="5.6141467"
         x="46.913116"
         y="56.137337" /><rect
         style="fill:#ffffff;fill-opacity:1;stroke-width:0.351827"
         id="rect501-7-3-8-2-1-4-1-3"
         width="4.0256743"
         height="5.6141467"
         x="47.035622"
         y="64.125221" /><path
         style="fill:#ffffff;fill-opacity:1;stroke-width:0.566819"
         id="path765"
         d="m 49.201998,45.494003 a 0.54110521,0.47372833 0 0 1 -0.506521,0.47276 0.54110521,0.47372833 0 0 1 -0.571269,-0.412327 0.54110521,0.47372833 0 0 1 0.433495,-0.525467"
         sodipodi:type="arc"
         sodipodi:arc-type="arc"
         sodipodi:open="true"
         sodipodi:start="0"
         sodipodi:end="4.5205131"
         sodipodi:ry="0.47372833"
         sodipodi:rx="0.54110521"
         sodipodi:cy="45.494003"
         sodipodi:cx="48.660892" /></g></g></svg>
