<?xml version="1.0" encoding="UTF-8" standalone="no"?>
<!-- Created with Inkscape (http://www.inkscape.org/) -->

<svg
   width="128"
   height="120"
   viewBox="0 0 33.866667 31.75"
   version="1.1"
   id="svg1205"
   inkscape:version="1.2.1 (9c6d41e410, 2022-07-14)"
   sodipodi:docname="logo2.svg"
   inkscape:export-filename="Desktop\logo.png"
   inkscape:export-xdpi="96"
   inkscape:export-ydpi="96"
   xml:space="preserve"
   xmlns:inkscape="http://www.inkscape.org/namespaces/inkscape"
   xmlns:sodipodi="http://sodipodi.sourceforge.net/DTD/sodipodi-0.dtd"
   xmlns="http://www.w3.org/2000/svg"
   xmlns:svg="http://www.w3.org/2000/svg"><sodipodi:namedview
     id="namedview1207"
     pagecolor="#ffffff"
     bordercolor="#000000"
     borderopacity="0.25"
     inkscape:showpageshadow="2"
     inkscape:pageopacity="0.0"
     inkscape:pagecheckerboard="true"
     inkscape:deskcolor="#d1d1d1"
     inkscape:document-units="mm"
     showgrid="false"
     inkscape:zoom="4"
     inkscape:cx="62.25"
     inkscape:cy="77.75"
     inkscape:window-width="1920"
     inkscape:window-height="1017"
     inkscape:window-x="-8"
     inkscape:window-y="-8"
     inkscape:window-maximized="1"
     inkscape:current-layer="g1708" /><defs
     id="defs1202" /><g
     inkscape:label="Слой 1"
     inkscape:groupmode="layer"
     id="layer1"><g
       id="g1708"
       transform="matrix(0.46460542,0,0,0.46897724,-0.06977528,-0.98975759)"><path
         style="fill:#000000;stroke-width:0.415518"
         id="path807"
         sodipodi:type="arc"
         sodipodi:cx="-10.030418"
         sodipodi:cy="-57.880741"
         sodipodi:rx="40.98048"
         sodipodi:ry="37.085236"
         sodipodi:start="0"
         sodipodi:end="4.5205131"
         sodipodi:open="true"
         sodipodi:arc-type="arc"
         d="M 30.950062,-57.880741 A 40.98048,37.085236 0 0 1 -7.4111498,-20.871332 40.98048,37.085236 0 0 1 -50.676077,-53.149826 40.98048,37.085236 0 0 1 -17.845424,-94.285397"
         transform="matrix(-0.76505697,0.6439626,-0.50124209,-0.86530709,0,0)" /><path
         sodipodi:type="star"
         style="fill:#ffffff;fill-opacity:1"
         id="path336"
         inkscape:flatsided="false"
         sodipodi:sides="5"
         sodipodi:cx="145.34866"
         sodipodi:cy="117.95252"
         sodipodi:r1="0.79248488"
         sodipodi:r2="0.39624244"
         sodipodi:arg1="0.66596924"
         sodipodi:arg2="1.2942878"
         inkscape:rounded="0"
         inkscape:randomized="0"
         d="m 145.97181,118.44214 -0.51497,-0.10843 -0.38126,0.36276 -0.056,-0.52327 -0.46282,-0.25051 0.48035,-0.21497 0.0952,-0.51758 0.35289,0.39041 0.52167,-0.0694 -0.26226,0.45627 z"
         inkscape:transform-center-x="0.67782665"
         inkscape:transform-center-y="-0.093481978"
         transform="matrix(2.6823675,0,0,2.6823675,-351.98061,-296.58706)" /><path
         sodipodi:type="star"
         style="fill:#ffffff;fill-opacity:1"
         id="path338"
         inkscape:flatsided="false"
         sodipodi:sides="5"
         sodipodi:cx="150.42285"
         sodipodi:cy="119.26558"
         sodipodi:r1="0.60744858"
         sodipodi:r2="0.30372429"
         sodipodi:arg1="2.6451699"
         sodipodi:arg2="3.2734884"
         inkscape:rounded="0"
         inkscape:randomized="0"
         d="m 149.88873,119.5549 0.23304,-0.32926 -0.13913,-0.37864 0.38516,0.11989 0.31711,-0.24932 0.005,0.40335 0.33511,0.22455 -0.38206,0.1294 -0.11,0.3881 -0.24114,-0.32338 z"
         inkscape:transform-center-x="-0.34489049"
         inkscape:transform-center-y="0.25024777"
         transform="matrix(2.6823675,0,0,2.6823675,-351.98061,-296.58706)" /><path
         sodipodi:type="star"
         style="fill:#ffffff;fill-opacity:1"
         id="path340"
         inkscape:flatsided="false"
         sodipodi:sides="5"
         sodipodi:cx="152.7374"
         sodipodi:cy="117.32938"
         sodipodi:r1="0.47628194"
         sodipodi:r2="0.23814096"
         sodipodi:arg1="0.65284663"
         sodipodi:arg2="1.2811652"
         inkscape:rounded="0"
         inkscape:randomized="0"
         d="m 153.11573,117.61869 -0.31032,-0.0611 -0.22626,0.221 -0.0378,-0.31402 -0.2801,-0.14688 0.28697,-0.13298 0.0531,-0.31179 0.21515,0.23183 0.31295,-0.0458 -0.154,0.27626 z"
         inkscape:transform-center-x="0.42619352"
         inkscape:transform-center-y="-0.036622524"
         transform="matrix(2.6823675,0,0,2.6823675,-351.98061,-296.58706)" /><path
         sodipodi:type="star"
         style="fill:#ffffff;fill-opacity:1"
         id="path342"
         inkscape:flatsided="false"
         sodipodi:sides="5"
         sodipodi:cx="148.21959"
         sodipodi:cy="115.52671"
         sodipodi:r1="0.22913124"
         sodipodi:r2="0.11456561"
         sodipodi:arg1="2.6344941"
         sodipodi:arg2="3.2628127"
         inkscape:rounded="0"
         inkscape:randomized="0"
         d="m 148.01929,115.63799 0.0866,-0.12513 -0.054,-0.14226 0.14576,0.0437 0.11861,-0.0953 0.004,0.15212 0.1273,0.0833 -0.14359,0.0503 -0.0399,0.14683 -0.0923,-0.121 z"
         inkscape:transform-center-x="-0.13759389"
         inkscape:transform-center-y="0.086775566"
         transform="matrix(2.6823675,0,0,2.6823675,-351.98061,-296.58706)" /><path
         sodipodi:type="star"
         style="fill:#ffffff;fill-opacity:1"
         id="path344"
         inkscape:flatsided="false"
         sodipodi:sides="5"
         sodipodi:cx="147.93027"
         sodipodi:cy="119.19881"
         sodipodi:r1="0.28150839"
         sodipodi:r2="0.14075419"
         sodipodi:arg1="1.8925469"
         sodipodi:arg2="2.5208654"
         inkscape:rounded="0"
         inkscape:randomized="0"
         d="m 147.84125,119.46587 -0.0255,-0.1852 -0.167,-0.084 0.16826,-0.0815 0.0283,-0.18479 0.12947,0.13486 0.18448,-0.0302 -0.0882,0.16481 0.0857,0.16612 -0.184,-0.033 z"
         inkscape:transform-center-x="0.26619965"
         inkscape:transform-center-y="-0.0067227361"
         transform="matrix(2.6823675,0,0,2.6823675,-351.98061,-296.58706)" /><path
         style="fill:#ffffff;stroke-width:0.239929"
         id="path346"
         sodipodi:type="arc"
         sodipodi:cx="22.061012"
         sodipodi:cy="24.928806"
         sodipodi:rx="7.5536618"
         sodipodi:ry="7.3957715"
         sodipodi:start="0"
         sodipodi:end="5.899712"
         sodipodi:open="true"
         sodipodi:arc-type="arc"
         d="m 29.614674,24.928806 a 7.5536618,7.3957715 0 0 1 -6.830614,7.361812 7.5536618,7.3957715 0 0 1 -8.138287,-5.952444 7.5536618,7.3957715 0 0 1 5.272595,-8.501365 7.5536618,7.3957715 0 0 1 9.147689,4.324916" /><rect
         style="fill:#999999;stroke-width:0.264583;fill-opacity:1"
         id="rect447"
         width="15.733679"
         height="30.525221"
         x="16.037962"
         y="39.254574" /><rect
         style="fill:#ffeeaa;stroke-width:0.250556;fill-opacity:1"
         id="rect501"
         width="2.855001"
         height="4.0148449"
         x="17.501625"
         y="40.26334" /><rect
         style="fill:#ffeeaa;stroke-width:0.250556;fill-opacity:1"
         id="rect501-7"
         width="2.855001"
         height="4.0148449"
         x="27.513456"
         y="40.307957" /><rect
         style="fill:#ffeeaa;stroke-width:0.250556;fill-opacity:1"
         id="rect501-7-3"
         width="2.855001"
         height="4.0148449"
         x="22.502337"
         y="40.307957" /><rect
         style="fill:#ffeeaa;stroke-width:0.250556;fill-opacity:1"
         id="rect501-2"
         width="2.855001"
         height="4.0148449"
         x="17.536562"
         y="45.460331" /><rect
         style="fill:#ffeeaa;stroke-width:0.250556;fill-opacity:1"
         id="rect501-7-2"
         width="2.855001"
         height="4.0148449"
         x="27.548395"
         y="45.50494" /><rect
         style="fill:#ffeeaa;stroke-width:0.250556;fill-opacity:1"
         id="rect501-7-3-8"
         width="2.855001"
         height="4.0148449"
         x="22.537283"
         y="45.50494" /><rect
         style="fill:#ffeeaa;stroke-width:0.250556;fill-opacity:1"
         id="rect501-2-7"
         width="2.855001"
         height="4.0148449"
         x="17.581182"
         y="50.411991" /><rect
         style="fill:#ffeeaa;stroke-width:0.250556;fill-opacity:1"
         id="rect501-7-2-1"
         width="2.855001"
         height="4.0148449"
         x="27.593006"
         y="50.456593" /><rect
         style="fill:#ffeeaa;stroke-width:0.250556;fill-opacity:1"
         id="rect501-7-3-8-2"
         width="2.855001"
         height="4.0148449"
         x="22.581894"
         y="50.456593" /><rect
         style="fill:#ffeeaa;stroke-width:0.250556;fill-opacity:1"
         id="rect501-2-7-8"
         width="2.855001"
         height="4.0148449"
         x="17.581182"
         y="55.274403" /><rect
         style="fill:#ffeeaa;stroke-width:0.250556;fill-opacity:1"
         id="rect501-7-2-1-2"
         width="2.855001"
         height="4.0148449"
         x="27.593006"
         y="55.319019" /><rect
         style="fill:#ffeeaa;stroke-width:0.250556;fill-opacity:1"
         id="rect501-7-3-8-2-1"
         width="2.855001"
         height="4.0148449"
         x="22.581902"
         y="55.319019" /><rect
         style="fill:#ffeeaa;stroke-width:0.250556;fill-opacity:1"
         id="rect501-2-7-8-7"
         width="2.855001"
         height="4.0148449"
         x="17.670404"
         y="60.002995" /><rect
         style="fill:#ffeeaa;stroke-width:0.250556;fill-opacity:1"
         id="rect501-7-2-1-2-3"
         width="2.855001"
         height="4.0148449"
         x="27.682228"
         y="60.047611" /><rect
         style="fill:#ffeeaa;stroke-width:0.250556;fill-opacity:1"
         id="rect501-7-3-8-2-1-4"
         width="2.855001"
         height="4.0148449"
         x="22.671118"
         y="60.047611" /><rect
         style="fill:#212529;stroke-width:0.250556;fill-opacity:1"
         id="rect501-7-3-8-2-1-4-1"
         width="2.855001"
         height="4.0148449"
         x="22.757998"
         y="65.759987" /><rect
         style="fill:#212529;stroke-width:0.264583;fill-opacity:1"
         id="rect447-4"
         width="15.733679"
         height="30.525221"
         x="33.10667"
         y="39.255817" /><rect
         style="fill:#ffeeaa;stroke-width:0.250556"
         id="rect501-1"
         width="2.855001"
         height="4.0148449"
         x="34.570324"
         y="40.264576" /><rect
         style="fill:#ffeeaa;stroke-width:0.250556"
         id="rect501-7-1"
         width="2.855001"
         height="4.0148449"
         x="44.582165"
         y="40.309208" /><rect
         style="fill:#ffeeaa;stroke-width:0.250556"
         id="rect501-7-3-6"
         width="2.855001"
         height="4.0148449"
         x="39.571053"
         y="40.309208" /><rect
         style="fill:#ffeeaa;stroke-width:0.250556"
         id="rect501-2-1"
         width="2.855001"
         height="4.0148449"
         x="34.60527"
         y="45.461552" /><rect
         style="fill:#ffeeaa;stroke-width:0.250556"
         id="rect501-7-2-7"
         width="2.855001"
         height="4.0148449"
         x="44.617111"
         y="45.506184" /><rect
         style="fill:#ffeeaa;stroke-width:0.250556"
         id="rect501-7-3-8-5"
         width="2.855001"
         height="4.0148449"
         x="39.605999"
         y="45.506184" /><rect
         style="fill:#ffeeaa;stroke-width:0.250556"
         id="rect501-2-7-2"
         width="2.855001"
         height="4.0148449"
         x="34.649891"
         y="50.413219" /><rect
         style="fill:#ffeeaa;stroke-width:0.250556"
         id="rect501-7-2-1-1"
         width="2.855001"
         height="4.0148449"
         x="44.661716"
         y="50.457821" /><rect
         style="fill:#ffeeaa;stroke-width:0.250556"
         id="rect501-7-3-8-2-4"
         width="2.855001"
         height="4.0148449"
         x="39.650604"
         y="50.457821" /><rect
         style="fill:#ffeeaa;stroke-width:0.250556"
         id="rect501-2-7-8-4"
         width="2.855001"
         height="4.0148449"
         x="34.649891"
         y="55.275631" /><rect
         style="fill:#ffeeaa;stroke-width:0.250556"
         id="rect501-7-2-1-2-5"
         width="2.855001"
         height="4.0148449"
         x="44.661716"
         y="55.320248" /><rect
         style="fill:#ffeeaa;stroke-width:0.250556"
         id="rect501-7-3-8-2-1-5"
         width="2.855001"
         height="4.0148449"
         x="39.650604"
         y="55.320248" /><rect
         style="fill:#ffeeaa;stroke-width:0.250556"
         id="rect501-2-7-8-7-5"
         width="2.855001"
         height="4.0148449"
         x="34.739113"
         y="60.004238" /><rect
         style="fill:#ffeeaa;stroke-width:0.250556"
         id="rect501-7-2-1-2-3-9"
         width="2.855001"
         height="4.0148449"
         x="44.750938"
         y="60.04884" /><rect
         style="fill:#ffeeaa;stroke-width:0.250556"
         id="rect501-7-3-8-2-1-4-9"
         width="2.855001"
         height="4.0148449"
         x="39.739826"
         y="60.04884" /><rect
         style="fill:#999999;stroke-width:0.250556;fill-opacity:1"
         id="rect501-7-3-8-2-1-4-1-3"
         width="2.855001"
         height="4.0148449"
         x="39.826706"
         y="65.761223" /><path
         style="fill:#4d4d4d;stroke-width:0.264583"
         id="path921"
         sodipodi:type="arc"
         sodipodi:cx="16.624231"
         sodipodi:cy="22.966053"
         sodipodi:rx="0.599572"
         sodipodi:ry="0.63288152"
         sodipodi:start="0"
         sodipodi:end="5.899712"
         sodipodi:open="true"
         sodipodi:arc-type="arc"
         d="m 17.223803,22.966053 a 0.599572,0.63288152 0 0 1 -0.54218,0.629975 0.599572,0.63288152 0 0 1 -0.645976,-0.509371 0.599572,0.63288152 0 0 1 0.418512,-0.727491 0.599572,0.63288152 0 0 1 0.726098,0.370098" /><path
         style="fill:#b3b3b3;stroke-width:0.264583"
         id="path923"
         sodipodi:type="arc"
         sodipodi:cx="23.093386"
         sodipodi:cy="18.835751"
         sodipodi:rx="0.99928665"
         sodipodi:ry="0.94932228"
         sodipodi:start="0"
         sodipodi:end="5.899712"
         sodipodi:open="true"
         sodipodi:arc-type="arc"
         d="m 24.092672,18.835751 a 0.99928665,0.94932228 0 0 1 -0.903633,0.944963 0.99928665,0.94932228 0 0 1 -1.076628,-0.764057 0.99928665,0.94932228 0 0 1 0.697521,-1.091236 0.99928665,0.94932228 0 0 1 1.210163,0.555147" /><path
         style="fill:#999999;stroke-width:0.264583;fill-opacity:1"
         id="path925"
         sodipodi:type="arc"
         sodipodi:cx="20.992117"
         sodipodi:cy="23.677959"
         sodipodi:rx="1.3323822"
         sodipodi:ry="1.3323822"
         sodipodi:start="0"
         sodipodi:end="5.899712"
         sodipodi:open="true"
         sodipodi:arc-type="arc"
         d="m 22.324499,23.677959 a 1.3323822,1.3323822 0 0 1 -1.204844,1.326265 1.3323822,1.3323822 0 0 1 -1.435504,-1.07236 1.3323822,1.3323822 0 0 1 0.930027,-1.53156 1.3323822,1.3323822 0 0 1 1.613551,0.779153" /><path
         style="fill:#212529;stroke-width:0.264583;fill-opacity:1"
         id="path927"
         sodipodi:type="arc"
         sodipodi:cx="18.53953"
         sodipodi:cy="28.678646"
         sodipodi:rx="0.68284589"
         sodipodi:ry="0.68284589"
         sodipodi:start="0"
         sodipodi:end="5.899712"
         sodipodi:open="true"
         sodipodi:arc-type="arc"
         d="m 19.222376,28.678646 a 0.68284589,0.68284589 0 0 1 -0.617483,0.67971 0.68284589,0.68284589 0 0 1 -0.735696,-0.549584 0.68284589,0.68284589 0 0 1 0.476639,-0.784925 0.68284589,0.68284589 0 0 1 0.826945,0.399317" /><path
         style="fill:#999999;stroke-width:0.264583"
         id="path929"
         sodipodi:type="arc"
         sodipodi:cx="26.367273"
         sodipodi:cy="23.049335"
         sodipodi:rx="0.28313121"
         sodipodi:ry="0.28313121"
         sodipodi:start="0"
         sodipodi:end="5.899712"
         sodipodi:open="true"
         sodipodi:arc-type="arc"
         d="m 26.650405,23.049335 a 0.28313121,0.28313121 0 0 1 -0.25603,0.281832 0.28313121,0.28313121 0 0 1 -0.305044,-0.227877 0.28313121,0.28313121 0 0 1 0.19763,-0.325456 0.28313121,0.28313121 0 0 1 0.34288,0.16557" /><path
         style="fill:#cccccc;stroke-width:0.264583"
         id="path931"
         sodipodi:type="arc"
         sodipodi:cx="26.200729"
         sodipodi:cy="27.512806"
         sodipodi:rx="0.44967899"
         sodipodi:ry="0.44967899"
         sodipodi:start="0"
         sodipodi:end="5.899712"
         sodipodi:open="true"
         sodipodi:arc-type="arc"
         d="m 26.650408,27.512806 a 0.44967899,0.44967899 0 0 1 -0.406635,0.447614 0.44967899,0.44967899 0 0 1 -0.484482,-0.361921 0.44967899,0.44967899 0 0 1 0.313884,-0.516902 0.44967899,0.44967899 0 0 1 0.544573,0.262964" /></g></g></svg>
